<svg xmlns:xlink="http://www.w3.org/1999/xlink" height="432" xmlns="http://www.w3.org/2000/svg" viewBox="0 0 940 432" xmlns:ev="http://www.w3.org/2001/xml-events" width="940"><style type="text/css"><![CDATA[
.st1 {fill:#303030;font-family:宋体;font-size:10pt}
]]></style><defs/><g transform="translate(5,5)" id="page1"><rect height="422" stroke="#808080" y="0" x="0" width="930" fill="#ffffff"/><g transform="translate(255.44,40.41)"><path stroke="#0d0d0d" d="M0,0L43.4,0" transform="translate(0,64.23)" id="shape1" fill="none"/><path stroke="#0d0d0d" d="M0,0L43.8,0" transform="translate(0,21.55)" id="shape2" fill="none"/><path stroke="#0d0d0d" d="M0,0L30.8,0" transform="translate(147.36,42.77)" id="shape3" fill="none"/><path stroke="#0d0d0d" d="M0,0L35.6,0C35.6,0,92,6.6,116.3,42.8C97.7,74,35.6,85.5,35.6,85.5C35.6,85.5,11.7,85.5,0,85.5C36.5,37.2,0,0,0,0z" transform="translate(31.26,0)" id="shape4" fill="#ffffff"/></g><g transform="translate(255.44,277.6)"><g transform="translate(0,0)"><path stroke="#0d0d0d" d="M0,0L43.6,0" transform="translate(0,64.23)" id="shape5" fill="none"/><path stroke="#0d0d0d" d="M0,0L44,0" transform="translate(0,21.55)" id="shape6" fill="none"/><path stroke="#0d0d0d" d="M0,0L30.9,0" transform="translate(147.92,42.77)" id="shape7" fill="none"/><path stroke="#0d0d0d" d="M0,0L0,85.5L77.6,85.5C77.6,85.5,116.4,79.3,116.4,42.8C116.4,6.2,77.6,0,77.6,0L0,0z" transform="translate(31.6,0)" id="shape8" fill="#ffffff"/></g><path stroke="#000000" d="M0,10.7C0,4.8,5,0,11.2,0C17.4,0,22.4,4.8,22.4,10.7C22.4,16.6,17.4,21.4,11.2,21.4C5,21.4,0,16.6,0,10.7z" transform="translate(145.89,32.08)" id="shape9" fill="#ffffff"/></g><g transform="translate(640.38,149.29)"><path stroke="#0d0d0d" d="M0,0L43.4,0" transform="translate(0,64.23)" id="shape10" fill="none"/><path stroke="#0d0d0d" d="M0,0L43.8,0" transform="translate(0,21.55)" id="shape11" fill="none"/><path stroke="#0d0d0d" d="M0,0L30.8,0" transform="translate(147.36,42.77)" id="shape12" fill="none"/><path stroke="#0d0d0d" d="M0,0L0,85.5L77.3,85.5C77.3,85.5,115.9,79.3,115.9,42.8C115.9,6.2,77.3,0,77.3,0L0,0z" transform="translate(31.48,0)" id="shape13" fill="#ffffff"/></g><path stroke="#000000" d="M0,0L173.9,0L173.9,87.9L205.9,87.9" transform="translate(434.51,82.98)" id="shape14" fill="none"/><path stroke="#000000" d="M0,0L174.3,0L174.3,-106.9L206.3,-106.9" transform="translate(434.09,320.38)" id="shape15" fill="none"/><g transform="translate(809.25,173.81)" id="shape16"><text class="st1"><tspan y="22.8" x="28.4">输出</tspan></text></g><g transform="translate(48.69,40.41)" id="shape17"><text class="st1"><tspan y="20.4" x="9.3">输入A</tspan></text></g><g transform="translate(39.59,72.9)" id="shape18"><text class="st1"><tspan y="35.6" x="18.4">输入B</tspan></text></g><path stroke="#000000" d="M0,0L-143.4,-0" transform="translate(255.44,61.96)" id="shape19" fill="none"/><path stroke="#000000" d="M0,0L-143.4,0" transform="translate(255.44,104.64)" id="shape20" fill="none"/><path stroke="#000000" d="M0,0L-39.4,0L-39.4,-233.2" transform="translate(255.44,299.15)" id="shape21" fill="none"/><path stroke="#000000" d="M0,0L-129.4,0L-129.4,-232.8" transform="translate(255.44,341.83)" id="shape22" fill="none"/></g></svg>